<?xml version="1.0" encoding="UTF-8"?><svg id="Capa_1" xmlns="http://www.w3.org/2000/svg" viewBox="0 0 2000 602.95"><defs><style>.cls-1,.cls-2,.cls-3{opacity:.8;}.cls-1,.cls-4{fill:#5067eb;}.cls-2{fill:#ffd124;}.cls-3{fill:#00c2cb;}</style></defs><path class="cls-4" d="M533.94,304.78c0-11.44,2.04-21.41,6.12-29.94,4.07-8.5,9.67-15.68,16.79-21.52,7.12-5.83,15.53-10.21,25.21-13.13,9.69-2.91,20.24-4.37,31.68-4.37,14,0,26.48,2.34,37.46,7.01,10.97,4.67,19.83,11.2,26.59,19.6,6.77-8.4,15.53-14.93,26.26-19.6,10.73-4.67,23.1-7.01,37.1-7.01,11.2,0,21.64,1.47,31.32,4.37,9.69,2.92,18.09,7.31,25.21,13.13,7.11,5.84,12.71,13.02,16.79,21.52,4.09,8.53,6.12,18.5,6.12,29.94v86.29c0,15.56-12.61,28.17-28.17,28.17h0c-15.56,0-28.17-12.61-28.17-28.17v-70.19c0-11.89-2.45-20.41-7.35-25.55-4.9-5.13-11.79-7.71-20.65-7.71s-16.52,3.05-22.23,9.1c-5.73,6.08-8.57,15.75-8.57,29.06v65.28c0,15.56-12.62,28.18-28.18,28.18h0c-15.56,0-28.18-12.62-28.18-28.18v-65.28c0-13.3-2.79-22.97-8.4-29.06-5.6-6.05-12.95-9.1-22.05-9.1s-15.81,2.58-20.82,7.71c-5.03,5.14-7.53,13.66-7.53,25.55v70.19c0,15.56-12.61,28.17-28.17,28.17h0c-15.56,0-28.17-12.61-28.17-28.17v-86.29Z"/><path class="cls-4" d="M839.22,327.07c0-13.13,2.49-25.26,7.48-36.36,4.98-11.09,11.83-20.72,20.56-28.87,8.71-8.16,18.86-14.56,30.4-19.2,11.56-4.65,24.01-6.97,37.38-6.97s25.54,2.32,37.2,6.97c11.65,4.65,21.86,11.05,30.58,19.2,8.71,8.14,15.57,17.78,20.54,28.87,4.99,11.1,7.48,23.23,7.48,36.36s-2.49,25.26-7.48,36.36c-4.98,11.1-11.83,20.72-20.54,28.88-8.72,8.16-18.93,14.56-30.58,19.19-11.67,4.65-24.07,6.97-37.2,6.97s-25.83-2.32-37.38-6.97c-11.54-4.63-21.69-11.03-30.4-19.19-8.72-8.16-15.58-17.78-20.56-28.88-4.99-11.1-7.48-23.21-7.48-36.36Zm95.82,42.47c5.65,0,10.92-1.06,15.79-3.22,4.88-2.16,9.12-5.1,12.75-8.83,3.62-3.75,6.4-8.21,8.32-13.42,1.92-5.21,2.89-10.88,2.89-16.99s-.97-11.78-2.89-16.99c-1.92-5.2-4.7-9.68-8.32-13.41-3.62-3.75-7.87-6.69-12.75-8.83-4.87-2.16-10.13-3.24-15.79-3.24s-11.21,1.08-15.97,3.24c-4.77,2.14-8.96,5.09-12.58,8.83-3.62,3.73-6.4,8.21-8.32,13.41-1.92,5.21-2.89,10.88-2.89,16.99s.97,11.78,2.89,16.99c1.92,5.21,4.7,9.68,8.32,13.42,3.62,3.73,7.81,6.68,12.58,8.83,4.76,2.16,10.06,3.22,15.97,3.22Z"/><path class="cls-4" d="M1184.33,381.85c0,6.23-2.27,11.61-6.51,15.86-.28,.28-.57,.57-.85,.85-.85,.57-1.7,1.42-2.55,1.98-1.7,1.13-3.68,2.55-6.23,3.96-3.96,2.26-8.5,4.53-13.88,6.51-5.38,1.98-11.61,3.68-18.4,5.38-6.8,1.42-13.87,1.98-21.52,1.98-21.24,0-37.94-5.38-49.83-16.71-11.89-11.32-17.84-26.33-17.84-45.02V213.66c0-8.78,2.55-15.01,7.65-18.69,5.1-3.68,12.18-5.38,20.67-5.38,6.23,0,11.61,.57,16.71,1.98,5.1,1.7,8.48,3.03,9.63,3.61v45.37h39.07c10.19,0,17.27,1.98,21.8,5.95,4.25,4.25,6.23,10.19,6.23,18.41,0,5.94-.85,11.32-2.55,16.42-1.98,5.1-3.4,8.5-4.25,10.19h-60.31v53.23c0,5.1,.57,9.34,2.27,12.46,1.7,3.12,3.68,5.38,5.95,7.08,2.55,1.98,5.1,3.12,8.21,3.68,3.11,.57,6.23,.85,9.34,.85,6.23,0,12.18-.85,17.27-2.83,.57-.28,11.33-6.8,17.27-6.8,6.51,0,11.61,2.27,16.14,6.51,4.25,4.25,6.51,9.63,6.51,16.14Z"/><path class="cls-4" d="M1199.13,264.55c0-8.83,2.6-15.06,7.81-18.69,5.21-3.61,12.11-5.43,20.72-5.43,6.11,0,11.67,.75,16.65,2.21,4.98,1.48,8.2,2.7,9.51,3.44v167.64h-54.69v-149.16Z"/><path class="cls-4" d="M1452.04,250.02c-.8,4-2.67,8.94-5.87,16.95-3.2,7.73-7.2,16.53-11.47,26.67-4.27,9.87-9.07,20.53-14.14,31.47-5.33,10.93-10.13,21.6-15.2,31.74-4.8,10.4-9.16,19.56-13.6,27.74-2.54,4.67-10.96,22.48-15.69,26.54-5.29,4.55-10.98,7.86-18.18,7.86s-13.33-2.4-18.13-7.2c-2.4-2.4-18.67-32-25.07-44.27-6.4-12.27-12-24-17.07-34.67-5.07-10.93-9.33-20-12.8-27.47-3.47-7.74-5.6-12.54-6.4-14.67-1.87-4.27-3.73-9.07-5.6-14.4-2.13-5.33-3.2-10.13-3.2-14.4,0-5.87,2.13-10.94,6.4-15.2,4.27-4.27,10.67-6.41,19.2-6.13,7.17,.23,19.31,2.44,24,4.8,3.73,10.4,7.47,20.8,11.73,31.47,4,10.67,7.73,20.53,11.47,29.6,3.73,9.07,7.2,17.07,10.13,24,2.93,6.93,5.07,12,6.4,14.67,1.33-2.67,3.47-7.47,6.13-14.14,2.67-6.93,5.87-14.4,9.07-22.4,3.47-8.27,6.67-16.53,9.87-24.8,3.47-8.27,6.13-15.2,8.53-20.8,1.33-3.2,2.67-6.4,4.27-9.07,1.6-2.67,3.67-5.13,5.87-7.2s5.07-3.47,8.27-4.53c3.2-1.07,6.93-1.58,11.73-1.6,6.26-.02,14.99,1.7,20.54,4,2.4,1.07,4.53,2.13,6.13,3.2,1.33,.8,2.4,1.99,2.67,2.26Z"/><path class="cls-4" d="M1618.22,284.37c-5.07-11.27-12.05-21.06-20.9-29.37-4.28-4.03-15.08-9.91-20.24-11.96-11.9-4.75-24.49-7.08-37.86-7.08s-26.28,2.33-38.02,7.08c-2.49,.98-4.91,2.08-7.24,3.24-.06,.03-.16,.06-.19,.09-6.04,3.4-11.58,7.4-16.71,11.99-.53,.47-1.07,.94-1.6,1.45-8.91,8.28-15.86,18.1-20.93,29.4-5.07,11.27-7.62,23.61-7.62,36.98s2.55,25.68,7.62,37.01c5.07,11.27,12.02,21.06,20.93,29.37,8.88,8.31,19.2,14.82,30.94,19.55,.06,.03,.09,.03,.16,.06,2.39,.94,4.82,1.79,7.3,2.52,9.63,3.02,19.83,4.5,30.56,4.5,.82,0,1.64,0,2.42-.06h.03c1.42,.03,2.83,.06,4.25,.06,21.34,0,41.04-4.66,57.16-12.05,8.47-3.81,13.12-12.28,13.12-20.74,0-4.31-1.26-8.81-3.93-12.62-.09-.09-.16-.22-.25-.35-.31-.44-.63-.88-1.01-1.29-.13-.19-.25-.35-.41-.54-.91-1.1-1.92-2.14-2.96-3.02-7.02-5.85-16.78-7.02-25.09-2.9-11.24,5.07-23.32,8.12-37.05,8.12-7.14,0-13.53-.72-19.11-2.33-6.33-1.76-11.65-4.66-15.89-8.78-4.69-4.66-8.03-10.89-9.82-19.01h.09l56.59,.06s41.51-.1,50.8-.19h5.79c.76,0,1.5-.17,2.17-.51,.02,0,.03-.02,.05-.02,1.42-.71,2.42-2.06,2.66-3.63,.63-4.11,1.79-12.4,1.79-18.03,0-13.35-2.55-25.68-7.62-37.01Zm-106.13,24.96h-5.7c.57-2.58,1.29-4.97,2.17-7.21-.03-.03,0-.06,0-.06,.6-1.61,1.29-3.12,2.05-4.53,2.01-3.9,4.53-7.18,7.55-9.79,2.68-2.33,5.76-4.12,9.22-5.35,3.65-1.29,7.68-1.98,12.12-1.98,.79,0,1.57,.03,2.36,.06h.09c5.41,.35,10.17,1.79,14.29,4.25,1.51,.88,2.96,1.95,4.28,3.15,2.52,2.23,4.72,4.97,6.55,8.15,.03,.09,.06,.16,.13,.22,.25,.47,.5,.94,.76,1.45,.35,.69,.69,1.38,1.01,2.14,1.26,2.86,2.27,6.04,3.08,9.51h-59.96Z"/><path class="cls-4" d="M1812.39,284.37c-5.07-11.27-12.05-21.06-20.9-29.37-4.28-4.03-15.08-9.91-20.24-11.96-11.9-4.75-24.49-7.08-37.86-7.08s-26.28,2.33-38.02,7.08c-2.49,.98-4.91,2.08-7.24,3.24-.06,.03-.16,.06-.19,.09-6.04,3.4-11.58,7.4-16.71,11.99-.53,.47-1.07,.94-1.6,1.45-8.91,8.28-15.86,18.1-20.93,29.4-5.07,11.27-7.62,23.61-7.62,36.98s2.55,25.68,7.62,37.01c5.07,11.27,12.02,21.06,20.93,29.37,8.88,8.31,19.2,14.82,30.94,19.55,.06,.03,.09,.03,.16,.06,2.39,.94,4.82,1.79,7.3,2.52,9.63,3.02,19.83,4.5,30.56,4.5,.82,0,1.64,0,2.42-.06h.03c1.42,.03,2.83,.06,4.25,.06,21.34,0,41.04-4.66,57.16-12.05,8.47-3.81,13.12-12.28,13.12-20.74,0-4.31-1.26-8.81-3.93-12.62-.09-.09-.16-.22-.25-.35-.31-.44-.63-.88-1.01-1.29-.13-.19-.25-.35-.41-.54-.91-1.1-1.92-2.14-2.96-3.02-7.02-5.85-16.78-7.02-25.09-2.9-11.24,5.07-23.32,8.12-37.05,8.12-7.14,0-13.53-.72-19.11-2.33-6.33-1.76-11.65-4.66-15.89-8.78-4.69-4.66-8.03-10.89-9.82-19.01h.09l56.59,.06s41.51-.1,50.8-.19h5.79c.76,0,1.5-.17,2.17-.51,.02,0,.03-.02,.05-.02,1.42-.71,2.42-2.06,2.66-3.63,.63-4.11,1.79-12.4,1.79-18.03,0-13.35-2.55-25.68-7.62-37.01Zm-106.13,24.96h-5.7c.57-2.58,1.29-4.97,2.17-7.21-.03-.03,0-.06,0-.06,.6-1.61,1.29-3.12,2.05-4.53,2.01-3.9,4.53-7.18,7.55-9.79,2.68-2.33,5.76-4.12,9.22-5.35,3.65-1.29,7.68-1.98,12.12-1.98,.79,0,1.57,.03,2.36,.06h.09c5.41,.35,10.17,1.79,14.29,4.25,1.51,.88,2.96,1.95,4.28,3.15,2.52,2.23,4.72,4.97,6.55,8.15,.03,.09,.06,.16,.13,.22,.25,.47,.5,.94,.76,1.45,.35,.69,.69,1.38,1.01,2.14,1.26,2.86,2.27,6.04,3.08,9.51h-59.96Z"/><path class="cls-4" d="M1247.62,189.01c-6.5-3.43-34.13-17.54-36.49-18.64-6.31-2.96-11.98-.45-11.98,7.3,0,0,0,36.4,0,39.17,0,5,5.58,7.68,11.79,4.97,10.2-4.44,35.14-17.61,37.31-18.78,7.49-4.05,7.68-9.65-.62-14.02Z"/><g><path class="cls-2" d="M345.07,303.41c-22.15-11.67-116.24-59.73-124.26-63.49-21.47-10.07-40.81-1.54-40.81,24.85,0,0,0,123.98,0,133.39,0,17.02,18.99,26.15,40.14,16.94,34.75-15.13,119.68-59.96,127.06-63.94,25.5-13.78,26.15-32.85-2.13-47.75Z"/><path class="cls-3" d="M408.72,303.41c-22.15-11.67-116.24-59.73-124.26-63.49-21.47-10.07-40.81-1.54-40.81,24.85,0,0,0,123.98,0,133.39,0,17.02,18.99,26.15,40.14,16.94,34.75-15.13,119.68-59.96,127.06-63.94,25.5-13.78,26.15-32.85-2.13-47.75Z"/><path class="cls-1" d="M472.38,303.41c-22.15-11.67-116.24-59.73-124.26-63.49-21.47-10.07-40.81-1.54-40.81,24.85,0,0,0,123.98,0,133.39,0,17.02,18.99,26.15,40.14,16.94,34.75-15.13,119.68-59.96,127.06-63.94,25.5-13.78,26.15-32.85-2.13-47.75Z"/></g></svg>